<?xml version="1.0" encoding="UTF-8"?>
<svg width="19px" height="25px" viewBox="0 0 19 25" version="1.1" xmlns="http://www.w3.org/2000/svg" xmlns:xlink="http://www.w3.org/1999/xlink">
    <!-- Generator: Sketch 61.2 (89653) - https://sketch.com -->
    <title>delete</title>
    <desc>Created with Sketch.</desc>
    <g id="final-web" stroke="none" stroke-width="1" fill="none" fill-rule="evenodd">
        <g id="08.package-editions-1" transform="translate(-1278.000000, -834.000000)" fill-rule="nonzero">
            <g id="delete" transform="translate(1278.000000, 834.000000)">
                <path d="M18.5622718,7 L16.9121794,21.0257856 C16.6455608,23.2920437 14.7248894,25 12.4430017,25 L12.4430017,25 L6.5569983,25 C4.27511063,25 2.35443918,23.2920437 2.08782058,21.0257856 L2.08782058,21.0257856 L0.437728154,7 L18.5622718,7 Z M17.437,8 L1.562,8 L3.08097118,20.9089444 C3.28093514,22.608638 4.67713373,23.9045597 6.36796185,23.9949575 L6.36796185,23.9949575 L6.5569983,24 L12.4430017,24 C14.2178032,24 15.7116588,22.6715896 15.9190288,20.9089444 L15.9190288,20.9089444 L17.437,8 Z M9.5,10 C9.74545989,10 9.94960837,10.1768752 9.99194433,10.4101244 L10,10.5 L10,21.1015625 C10,21.3777049 9.77614237,21.6015625 9.5,21.6015625 C9.25454011,21.6015625 9.05039163,21.4246873 9.00805567,21.1914381 L9,21.1015625 L9,10.5 C9,10.2238576 9.22385763,10 9.5,10 Z" id="Combined-Shape" fill="#000000"></path>
                <path d="M1,5.5 C0.723857625,5.5 0.5,5.27614237 0.5,5 C0.5,4.75454011 0.676875161,4.55039163 0.910124368,4.50805567 L1,4.5 L6.5,4.5 L6.5,3 C6.5,1.61928813 7.61928813,0.5 9,0.5 L11,0.5 C12.3807119,0.5 13.5,1.61928813 13.5,3 L13.5,4.5 L18,4.5 C18.2761424,4.5 18.5,4.72385763 18.5,5 C18.5,5.24545989 18.3231248,5.44960837 18.0898756,5.49194433 L18,5.5 L1,5.5 Z M11,1.5 L9,1.5 L8.85553999,1.50686658 C8.09488808,1.57955132 7.5,2.22030388 7.5,3 L7.5,4.5 L12.5,4.5 L12.5,3 C12.5,2.17157288 11.8284271,1.5 11,1.5 Z" id="Combined-Shape" fill="#DC3737"></path>
            </g>
        </g>
    </g>
</svg>