<svg width="46" height="42" viewBox="0 0 46 42" fill="none" xmlns="http://www.w3.org/2000/svg">
<path d="M12 23.5H16.8889L20.5556 33L25.4444 14L29.1111 23.5H34" stroke="#5AC380" stroke-linecap="round" stroke-linejoin="round"/>
<path d="M45.4444 36.5556C45.4444 37.7343 44.9762 38.8648 44.1427 39.6983C43.3092 40.5317 42.1787 41 41 41H5.44444C4.2657 41 3.13524 40.5317 2.30175 39.6983C1.46825 38.8648 1 37.7343 1 36.5556V5.44444C1 4.2657 1.46825 3.13524 2.30175 2.30175C3.13524 1.46825 4.2657 1 5.44444 1H16.5556L21 7.66667H41C42.1787 7.66667 43.3092 8.13492 44.1427 8.96841C44.9762 9.80191 45.4444 10.9324 45.4444 12.1111V36.5556Z" stroke="#5AC380" stroke-linecap="round" stroke-linejoin="round"/>
</svg>
