<svg width="22" height="22" viewBox="0 0 22 22" fill="none" xmlns="http://www.w3.org/2000/svg">
<path d="M1.11552 9.63809C0.759894 11.9485 1.21827 14.3935 2.58922 16.5084C5.55014 21.0759 11.6466 22.3741 16.206 19.4079C20.7654 16.4416 22.0612 10.3343 19.1003 5.76673C16.1394 1.19915 10.043 -0.099006 5.48355 2.86721" stroke="black" stroke-linecap="round"/>
<path fill-rule="evenodd" clip-rule="evenodd" d="M7.69589 2.22873C7.06838 2.42442 6.02907 3.17567 6.57826 4.02286C7.12745 4.87005 7.00348 5.40969 6.66187 5.9382C6.32027 6.46672 4.93598 6.84445 4.29635 5.53255C3.65672 4.22065 3.38534 2.47413 7.48857 1.43356" fill="black"/>
<path d="M11.0571 6.75195L11.0571 14.9696" stroke="black" stroke-linecap="round"/>
<path d="M6.97998 10.8608L15.1977 10.8608" stroke="black" stroke-linecap="round"/>
</svg>
