<?xml version="1.0" encoding="UTF-8"?>
<svg width="20px" height="19px" viewBox="0 0 20 19" version="1.1" xmlns="http://www.w3.org/2000/svg" xmlns:xlink="http://www.w3.org/1999/xlink">
    <!-- Generator: Sketch 61.2 (89653) - https://sketch.com -->
    <title>error</title>
    <desc>Created with Sketch.</desc>
    <g id="final-web" stroke="none" stroke-width="1" fill="none" fill-rule="evenodd">
        <g id="20.edit-profile--error" transform="translate(-40.000000, -741.000000)" fill="#EB4C4C">
            <g id="Group-4" transform="translate(40.000000, 741.000000)">
                <path d="M10.4472136,0.341640787 C10.640741,0.438404488 10.7976635,0.59532698 10.8944272,0.788854382 L19.2763932,17.5527864 C19.5233825,18.0467649 19.3231581,18.6474379 18.8291796,18.8944272 C18.6903242,18.9638549 18.5372111,19 18.381966,19 L1.61803399,19 C1.06574924,19 0.618033989,18.5522847 0.618033989,18 C0.618033989,17.8447549 0.654179081,17.6916418 0.723606798,17.5527864 L9.10557281,0.788854382 C9.35256206,0.294875885 9.9532351,0.0946515378 10.4472136,0.341640787 Z M10,15 C9.44771525,15 9,15.4477153 9,16 C9,16.5522847 9.44771525,17 10,17 C10.5522847,17 11,16.5522847 11,16 C11,15.4477153 10.5522847,15 10,15 Z M10,5.24072266 C9.58578644,5.24072266 9.25,5.57650909 9.25,5.99072266 L9.25,5.99072266 L9.25,13.1743164 L9.25684662,13.276087 C9.30650904,13.6421625 9.62030423,13.9243164 10,13.9243164 C10.4142136,13.9243164 10.75,13.58853 10.75,13.1743164 L10.75,13.1743164 L10.75,5.99072266 L10.7431534,5.8889521 C10.693491,5.52287654 10.3796958,5.24072266 10,5.24072266 Z" id="error"></path>
            </g>
        </g>
    </g>
</svg>