<svg width="47" height="42" viewBox="0 0 47 42" fill="none" xmlns="http://www.w3.org/2000/svg">
<path d="M45.5401 36.5556C45.5401 37.7343 45.0719 38.8648 44.2384 39.6983C43.4049 40.5317 42.2744 41 41.0957 41H5.54015C4.36141 41 3.23095 40.5317 2.39745 39.6983C1.56396 38.8648 1.0957 37.7343 1.0957 36.5556V5.44444C1.0957 4.2657 1.56396 3.13524 2.39745 2.30175C3.23095 1.46825 4.36141 1 5.54015 1H16.6513L21.0957 7.66667H41.0957C42.2744 7.66667 43.4049 8.13492 44.2384 8.96841C45.0719 9.80191 45.5401 10.9324 45.5401 12.1111V36.5556Z" stroke="#808080" stroke-linecap="round" stroke-linejoin="round"/>
<path d="M24.5384 14.0421C23.7922 14.0421 23.1098 14.6763 23.1598 15.4207L23.8491 28.3396C23.8491 28.5224 23.9217 28.6977 24.051 28.827C24.1803 28.9563 24.3556 29.0289 24.5384 29.0289C24.7212 29.0289 24.8965 28.9563 25.0258 28.827C25.1551 28.6977 25.2277 28.5224 25.2277 28.3396L25.917 15.4207C25.967 14.6763 25.2846 14.0421 24.5384 14.0421Z" fill="#FB4E0B"/>
<path d="M24.5383 34.3718C25.2996 34.3718 25.9168 33.7546 25.9168 32.9932C25.9168 32.2319 25.2996 31.6147 24.5383 31.6147C23.7769 31.6147 23.1597 32.2319 23.1597 32.9932C23.1597 33.7546 23.7769 34.3718 24.5383 34.3718Z" fill="#FB4E0B"/>
</svg>
